<?xml version="1.0" encoding="utf-8"?>
<!-- Generated by IcoMoon.io -->
<svg version="1.1" xmlns="http://www.w3.org/2000/svg" xmlns:xlink="http://www.w3.org/1999/xlink" width="8432" height="512" viewBox="0 0 8432 512">
<symbol id="icon-stack" width="512" height="512" viewBox="0 0 512 512" x="0" y="0">
<path d="M512 160l-256-128-256 128 256 128 256-128zM256 74.485l171.029 85.515-171.029 85.515-171.029-85.515 171.029-85.515zM460.722 230.361l51.278 25.639-256 128-256-128 51.278-25.639 204.722 102.361zM460.722 326.361l51.278 25.639-256 128-256-128 51.278-25.639 204.722 102.361z"></path>
</symbol>
<symbol id="icon-calculator" width="512" height="512" viewBox="0 0 512 512" x="528" y="0">
<path d="M192 32h-160c-17.6 0-32 14.4-32 32v160c0 17.6 14.398 32 32 32h160c17.6 0 32-14.4 32-32v-160c0-17.6-14.4-32-32-32zM192 160h-160v-32h160v32zM448 32h-160c-17.602 0-32 14.4-32 32v416c0 17.6 14.398 32 32 32h160c17.6 0 32-14.4 32-32v-416c0-17.6-14.4-32-32-32zM448 320h-160v-32h160v32zM448 224h-160v-32h160v32zM192 288h-160c-17.6 0-32 14.4-32 32v160c0 17.6 14.398 32 32 32h160c17.6 0 32-14.4 32-32v-160c0-17.6-14.4-32-32-32zM192 416h-64v64h-32v-64h-64v-32h64v-64h32v64h64v32z"></path>
</symbol>
<symbol id="icon-history" width="544" height="512" viewBox="0 0 544 512" x="1056" y="0">
<path d="M320 32c123.712 0 224 100.288 224 224s-100.288 224-224 224v-48c47.012 0 91.209-18.307 124.451-51.549s51.549-77.439 51.549-124.451c0-47.011-18.307-91.209-51.549-124.451s-77.439-51.549-124.451-51.549c-47.011 0-91.209 18.307-124.451 51.549-25.57 25.569-42.291 57.623-48.653 92.451h93.104l-112 128-112-128h82.285c15.53-108.551 108.869-192 221.715-192zM416 224v64h-128v-160h64v96z"></path>
</symbol>
<symbol id="icon-database" width="512" height="512" viewBox="0 0 512 512" x="2112" y="0">
<path d="M256 0c-141.385 0-256 35.817-256 80v64c0 44.183 114.615 80 256 80s256-35.817 256-80v-64c0-44.183-114.615-80-256-80z"></path>
<path d="M256 272c-141.385 0-256-35.817-256-80v96c0 44.183 114.615 80 256 80s256-35.817 256-80v-96c0 44.183-114.615 80-256 80z"></path>
<path d="M256 416c-141.385 0-256-35.817-256-80v96c0 44.183 114.615 80 256 80s256-35.817 256-80v-96c0 44.183-114.615 80-256 80z"></path>
</symbol>
<symbol id="icon-user-tie" width="512" height="512" viewBox="0 0 512 512" x="2640" y="0">
<path d="M160 96c0-53.020 42.981-96 96-96s96 42.98 96 96c0 53.019-42.981 96-96 96s-96-42.981-96-96zM384.039 224h-17.712l-99.552 202.122 37.225-186.122-48-48-48 48 37.225 186.122-99.551-202.122h-17.712c-63.962 0-63.962 42.993-63.962 96v160h384v-160c0-53.007 0-96-63.961-96z"></path>
</symbol>
<symbol id="icon-shield" width="512" height="512" viewBox="0 0 512 512" x="3168" y="0">
<path d="M480 0l-224 64-224-64c0 0-2.25 25.849 0 64l224 70.045 224-70.045c2.249-38.151 0-64 0-64zM36.095 97.553c11.993 125.348 56.745 336.117 219.905 414.447 163.16-78.33 207.912-289.099 219.905-414.447l-219.905 82.679-219.905-82.679z"></path>
</symbol>
<symbol id="icon-cloud-check" width="512" height="512" viewBox="0 0 512 512" x="3696" y="0">
<path d="M446.134 257.245c1.221-5.554 1.866-11.323 1.866-17.245 0-44.183-35.817-80-80-80-7.112 0-14.007 0.934-20.567 2.676-12.398-38.676-48.644-66.676-91.433-66.676-43.674 0-80.527 29.168-92.163 69.085-11.371-3.31-23.396-5.085-35.837-5.085-70.692 0-128 57.308-128 128s57.308 128 128 128h304c44.183 0 80-35.816 80-80 0-39.359-28.427-72.080-65.866-78.755zM208 384l-80-80 32-32 48 48 112-112 32 32-144 144z"></path>
</symbol>
<symbol id="icon-eye" width="512" height="512" viewBox="0 0 512 512" x="4224" y="0">
<path d="M256 96c-111.659 0-208.441 65.021-256 160 47.559 94.979 144.341 160 256 160 111.656 0 208.438-65.021 256-160-47.558-94.979-144.344-160-256-160zM382.225 180.852c30.081 19.187 55.571 44.887 74.717 75.148-19.146 30.261-44.637 55.961-74.718 75.148-37.797 24.109-81.445 36.852-126.224 36.852-44.78 0-88.429-12.743-126.226-36.852-30.079-19.186-55.569-44.886-74.716-75.148 19.146-30.262 44.637-55.962 74.717-75.148 1.959-1.25 3.938-2.461 5.93-3.65-4.98 13.664-7.705 28.411-7.705 43.798 0 70.691 57.308 128 128 128s128-57.309 128-128c0-15.387-2.726-30.134-7.704-43.799 1.989 1.189 3.969 2.401 5.929 3.651v0zM256 208c0 26.51-21.49 48-48 48s-48-21.49-48-48 21.49-48 48-48 48 21.491 48 48z"></path>
</symbol>
</svg>
